<?xml version="1.0" encoding="utf-8"?>
<!-- Generator: Adobe Illustrator 24.0.1, SVG Export Plug-In . SVG Version: 6.00 Build 0)  -->
<svg version="1.1" id="Layer_1" xmlns="http://www.w3.org/2000/svg" xmlns:xlink="http://www.w3.org/1999/xlink" x="0px" y="0px"
	 viewBox="0 0 300 100" style="enable-background:new 0 0 300 100;" xml:space="preserve">
<style type="text/css">
	.st0{fill:#AA2A2B;}
	.st1{fill:#424242;}
	.st2{fill:#434342;}
	.st3{fill:#434242;}
	.st4{fill:#444444;}
	.st5{fill:#434343;}
	.st6{fill:#444343;}
	.st7{fill:#464646;}
	.st8{fill:#646363;}
	.st9{fill:#FEFEFE;}
</style>
<g>
	<path class="st0" d="M33,61c3.6,3.8,7.3,6.7,12.8,6.8c-2.2-2-4.2-3.8-4.6-6.8c1.6,0.7,2.8,1.7,4.1,2.5c4.6,3.1,9.5,5.3,14.9,6.2
		c3.8,0.6,7.6,0.1,11.3-0.2c1.5-0.2,3-0.3,4.5-0.3c-5.2,4.3-11.4,5.8-18,5.9c-6.7,0.1-12.6-2.1-18.1-5.9c-0.1,0.1-0.1,0.3-0.2,0.4
		c0.4,0.5,0.8,0.9,1.2,1.4c4.1,4.3,9.3,6.6,15,7.6c9.4,1.5,18.3-0.1,26.3-5.5c3.5-2.4,6.6-5.4,8.6-9.1c2.1-3.7,5.2-5.4,9.4-5.3
		c2.5,0,5.1,0,7.5,0.6c0.5,0.1,1.1,0.3,1.6,0.5c2,0.9,2.8,2.4,2.3,4.6c-0.3,1.4-1,2.7-1.7,4c-5.2,9.6-13,15.8-23.4,18.8
		c-12.3,3.6-24.4,3-36-2.9c-6.8-3.5-11.7-8.9-15.3-15.5C34.1,66.4,33.4,64,33,61z"/>
	<path class="st0" d="M103.9,22.3c-1.3-1.2-2.9-2.5-4.4-4c-7.8-7.4-17-11.2-27.8-10.5c-8.4,0.5-15.6,3.8-20.9,10.5
		c-1.3,1.7-2.7,3.4-4.2,5c-3.2,3.6-7.3,4.2-11.8,3.3c-2.6-0.6-3.5-2.3-2.6-4.8c1-2.9,2.9-5.1,5-7.2c7.4-7.3,16.3-11.5,26.5-13
		c8.4-1.2,16.6-0.2,24.3,3.6c1,0.5,2.1,1.1,3,1.8C90,6.9,89,6.5,88,6.2c-2.5-0.8-5-1.6-7.6-1.9c-1.8-0.2-3.6-0.1-5.5,0.9
		c6.2,0.5,11.7,2.5,16.8,5.4C96.9,13.6,101.4,17.2,103.9,22.3z"/>
	<path class="st1" d="M113.7,27.4c-6.2-12.6-15-22.6-28.5-27.6C69.7-6.2,54.8-4.1,40.8,4.7c-5.4,3.4-9.7,7.8-13.1,13.1
		c-1,1.5-2,3-3.4,4.5c0.2-1.2,0.6-2.1,1.1-3C32.1,5.6,42.4-4,57.5-7.6c21.3-5,43.2,5.7,52.8,25.4c1.5,3,2.9,6,3.6,9.3
		C114.1,27.4,114,27.4,113.7,27.4z"/>
	<path class="st1" d="M69.4,94.1c-5.2,0.4-10.5,0.4-15.7-0.5c-10.6-1.9-19.5-6.9-26.6-14.9c-3.4-3.8-6.6-7.8-9.2-12.3
		c-0.9-1.6-1.8-3.3-2.1-5.2c-0.1-0.6,0.1-0.8,0.6-1c3.9-1.5,6.9-0.6,9,3.1c2.1,3.6,4,7.3,6.7,10.4c9.7,11.3,21.9,17.9,36.6,20
		c0.5,0.1,0.9,0.1,1.4,0.1C70.1,94.3,69.6,93.9,69.4,94.1z"/>
	<path class="st0" d="M75.9,49.5c1.7-4.9,3.3-9.6,4.8-14.2c0.7-2,0.3-2.4-1.7-2.9c-0.2,0-0.6,0-0.6-0.3c0-0.4,0.4-0.3,0.6-0.3
		c1.9,0,3.7,0,5.6,0c0.2,0,0.5-0.1,0.6,0.2c0.1,0.4-0.2,0.4-0.4,0.4c-1.4,0.2-2,1.3-2.4,2.5c-1.6,4.5-3.1,9.1-4.7,13.6
		c-0.7,1.9-1.3,3.9-2,5.8c-0.1,0.4-0.1,1.1-0.7,1c-0.6,0-0.5-0.6-0.6-1c-1.6-4.5-3.2-8.9-4.8-13.4c-0.5,0-0.3,0.4-0.4,0.6
		c-1.5,4.3-3,8.5-4.5,12.8c-0.1,0.4-0.1,1-0.7,1c-0.6,0-0.5-0.6-0.7-1C61,48,58.7,41.6,56.4,35.1c-0.5-1.3-1-2.6-2.7-2.7
		c-0.2,0-0.4,0-0.4-0.3c0-0.3,0.3-0.3,0.4-0.3c2.5,0,5,0,7.6,0c0.2,0,0.4,0,0.4,0.3c0,0.3-0.2,0.3-0.4,0.3c-2,0.5-2.2,0.8-1.6,2.7
		c1.6,4.7,3.3,9.4,5,14.4c0.9-2.5,1.7-4.7,2.5-7c0.1-0.3,0.2-0.7,0.3-1c1.6-2.6,0.5-5-0.6-7.4c-0.4-0.9-1.1-1.5-2.2-1.7
		c-0.2,0-0.6,0.1-0.6-0.4c0-0.3,0.3-0.3,0.6-0.3c2.6,0,5.2,0,7.8,0c0.2,0,0.5,0,0.5,0.3c0,0.3-0.2,0.2-0.4,0.3
		c-2,0.4-2.4,0.9-1.8,2.9c1.2,3.7,2.5,7.3,3.8,10.9C75.1,47.2,75.5,48.2,75.9,49.5z"/>
	<path class="st0" d="M47.9,42.3c1.3,0,2.6,0,3.9,0c0.2,0,0.5,0,0.5,0.3c0,0.2-0.3,0.2-0.4,0.3c-1.8,0.5-2,0.7-2.1,2.6
		c0,2.3-0.1,4.7,0,7c0,0.7-0.2,1-0.9,1.3c-3.8,1.8-7.8,2.2-11.9,1c-7.8-2.3-10.6-11.7-5.6-18.6c3-4.1,8-5.9,12.9-4.4
		c0.8,0.2,1.6,0.5,2.4,0.8c0.9,0.3,1.6,0.4,1.7-0.8c0-0.2,0.1-0.4,0.3-0.4c0.3,0,0.4,0.2,0.4,0.5c0.2,2.1,0.3,4.2,0.5,6.2
		c0,0.2,0.1,0.4-0.2,0.5c-0.3,0.1-0.4-0.1-0.5-0.3c-0.2-0.5-0.4-1.1-0.7-1.6c-2.6-5-9.7-5.5-13.1-1.1c-3.3,4.3-3,11.9,0.6,16
		c2.5,2.8,6.9,3.6,10.2,1.8c0.4-0.2,0.6-0.5,0.6-1c0-2.2,0-4.4,0-6.6c0-2-0.4-2.4-2.4-2.7c-0.2,0-0.6,0.1-0.6-0.3
		c0-0.4,0.4-0.3,0.6-0.3c0.6,0,1.3,0,1.9,0C46.6,42.3,47.2,42.3,47.9,42.3z"/>
	<path class="st0" d="M101.6,35.3c0,1.1,0,2.3,0,3.4c0,0.2,0,0.4-0.2,0.5c-0.3,0-0.4-0.1-0.5-0.4c-0.2-0.7-0.3-1.4-0.5-2.1
		c-0.9-2.6-3.4-4.3-6.1-4.1c-1.7,0.1-3.1,1.1-3.6,2.6c-0.5,1.4,0,2.6,1.5,3.7c1.4,1.1,3,1.9,4.5,2.8c1.1,0.6,2.1,1.2,3.2,1.9
		c2.7,1.7,3.8,4.3,3,7c-0.7,2.6-3.2,4.5-6.2,4.8c-1.5,0.1-3-0.1-4.4-0.6c-0.7-0.3-1.5-0.5-2.3-0.6c-0.6-0.1-1.1,0-1.3,0.7
		c-0.1,0.3-0.1,0.6-0.5,0.5c-0.3-0.1-0.2-0.4-0.2-0.6c0-2.2,0-4.4,0-6.6c0-0.2-0.1-0.5,0.3-0.6c0.4-0.1,0.4,0.3,0.5,0.5
		c0.2,0.6,0.3,1.3,0.5,1.9c1.1,3.2,5.3,5,8.4,3.6c2.6-1.1,3.2-4,1.2-6c-0.8-0.9-1.9-1.4-2.9-2c-1.8-1-3.6-2-5.3-3.2
		c-2.7-1.9-3.7-4.5-2.6-7.2c1-2.6,4.1-4.4,7.1-4c1.3,0.1,2.5,0.5,3.6,1.1c0.9,0.4,1.6,0.4,2-0.7c0.1-0.3,0.2-0.4,0.5-0.4
		c0.3,0.1,0.2,0.4,0.2,0.6C101.7,33,101.6,34.2,101.6,35.3z"/>
	<path class="st2" d="M144.9,52.3c-0.9,0-1.8,0-2.7,0c-0.4,0-0.6-0.3-0.8-0.6c-1-1.3-2-2.7-2.9-4c-0.3-0.5-0.7-0.9-1.3-0.7
		c-0.7,0.2-0.3,0.8-0.3,1.2c-0.1,0.6,0,1.3,0,1.9c-0.1,1.1,0.1,2.1,2,1.9c-1.2,0.4-4.3,0.4-5.4,0.1c1.8,0.1,1.7-1.1,1.7-2.2
		c0-2.2,0-4.4,0-6.6c0-1.1,0.1-2.3-1.8-2.1c0.1-0.1,0.2-0.2,0.2-0.3c1.7,0,3.4,0,5.1,0c0.5,0,0.9,0.1,1.4,0.2
		c1.3,0.3,2.3,1.3,2.5,2.5c0.1,1.3-0.5,2.4-1.9,3c-0.2,0.1-0.5,0.2-0.8,0.3C140.9,49,143.1,51.4,144.9,52.3z"/>
	<path class="st3" d="M23.8,7.6c-0.6,1.1-1.1,2.2-1.7,3.3c-2.6,4.6-4.3,9.4-4.8,14.7c-0.1,0.8-0.2,1.7-1.3,1.9c-1.4,0.2-2-0.3-2-1.7
		c0.1-2.2,0.7-4.2,1.6-6.1c1.9-4.1,4.3-7.9,7.2-11.4C23.1,7.9,23.3,7.6,23.8,7.6z"/>
	<path class="st2" d="M152.8,46.1c1.4,0,2.9,0,4.3,0c-1.3,0.3-1.3,1.3-1.2,2.3c0,0.5,0,1,0,1.5c0,2,0,2-2,2.5
		c-3.7,1-7.3-0.7-8.2-3.8c-0.7-2.4-0.1-4.5,1.6-6.3c1.7-1.8,3.9-2.1,6.2-1.4c0.7,0.2,1.4,0.8,2-0.7c0.1,1.6,0.2,2.8,0.3,4
		c-0.6,0-0.6-0.6-0.7-0.9c-0.7-1.3-1.7-2-3.2-2.1c-1.5-0.1-2.8,0.5-3.6,1.8c-1.3,2.1-1.2,5.4,0.3,7.4c1.1,1.5,3.2,2.1,5,1.3
		c0.4-0.2,0.6-0.4,0.6-0.9c0-0.8,0-1.7,0-2.5C154.3,47.2,154.1,46.3,152.8,46.1z"/>
	<path class="st4" d="M120.8,40.8c1.6,0,3.3,0,4.9,0c-0.5,0.4-1.3,0.2-1.5,0.9c-0.1,0.6-0.1,1.2-0.1,1.8c0,1.8,0,3.6,0.1,5.4
		c0.1,2,1.1,2.9,3,2.9c2.1,0,3.3-1.1,3.4-3c0.1-1.9,0-3.8,0.1-5.7c0-1.2-0.1-2.2-1.6-2.3c1.3,0,2.7,0,4,0c-1.9,0.1-1.6,1.6-1.6,2.8
		c-0.1,1.9,0.1,3.9-0.1,5.8c-0.2,1.6-1.2,2.6-2.7,3c-1.2,0.4-2.4,0.3-3.6,0c-1.5-0.4-2.4-1.6-2.5-3.2c-0.1-2-0.1-4.1-0.1-6.2
		C122.4,41.5,122.3,41.3,120.8,40.8z"/>
	<path class="st5" d="M206.1,40.5c0,1.4,0,2.7,0,4c-0.1,0-0.1,0-0.2,0c-0.1-0.4-0.2-0.8-0.4-1.1c-0.4-1.3-1.7-2.1-3-2.1
		c-0.9,0-1.5,0.4-1.8,1.2c-0.3,0.8,0.1,1.5,0.8,1.9c1.1,0.7,2.2,1.3,3.2,1.9c1.9,1.2,2.6,2.6,2,4.1c-0.6,1.6-2.4,2.4-4.4,2.1
		c-0.5-0.1-0.9-0.2-1.4-0.4c-0.6-0.2-1.1-0.3-1.4,0.5c-0.3-0.9-0.3-2.8-0.1-4c0.4,0.2,0.4,0.7,0.5,1c0.5,1.5,1.9,2.4,3.5,2.2
		c0.9-0.1,1.6-0.5,1.9-1.4c0.3-0.9-0.2-1.6-0.9-2.1c-0.6-0.4-1.3-0.8-1.9-1.2c-0.6-0.4-1.2-0.7-1.8-1.1c-1.3-1-1.8-2.2-1.3-3.5
		c0.5-1.3,1.9-2.3,3.5-2.1c0.6,0.1,1.2,0.2,1.7,0.4C205.3,41.2,205.3,41.2,206.1,40.5z"/>
	<path class="st5" d="M112.2,52.5c0-1.3,0-2.5,0-4c0.5,0.3,0.5,0.8,0.6,1.1c0.5,1.6,2,2.5,3.6,2.2c0.9-0.1,1.6-0.5,1.8-1.4
		c0.2-0.9-0.2-1.6-0.9-2c-1.1-0.7-2.2-1.3-3.3-2c-0.9-0.6-1.7-1.3-1.9-2.4c-0.2-2,1.5-3.7,3.7-3.4c0.5,0.1,1.1,0.2,1.6,0.4
		c0.6,0.3,1.1,0.3,1.6-0.7c0.2,1.7,0.1,2.9,0,4.4c-0.5-0.5-0.4-1-0.6-1.4c-0.6-1.4-2.1-2.2-3.4-1.8c-0.7,0.2-1.2,0.6-1.4,1.3
		c-0.2,0.7,0.1,1.2,0.7,1.6c1.1,0.8,2.3,1.4,3.4,2.1c1.9,1.1,2.5,2.5,2,4.1c-0.6,1.6-2.4,2.5-4.4,2.1c-0.4-0.1-0.8-0.2-1.3-0.3
		C113.3,52,112.7,51.7,112.2,52.5z"/>
	<path class="st6" d="M173.4,50.9c-1.6,1.9-3.6,2.1-5.8,1.5c-2.3-0.7-3.4-2.5-3.7-4.7c-0.6-5.1,3.5-8.2,8.3-6.4
		c0.8,0.3,1-0.3,1.5-0.8c0.1,1.5,0.2,2.8,0.3,4.3c-0.5-0.4-0.6-0.8-0.7-1.2c-0.7-1.5-1.8-2.2-3.5-2.2c-1.7,0-2.8,0.8-3.4,2.4
		c-0.7,1.7-0.7,3.5-0.3,5.2c0.8,3.3,5,3.9,7,1.8C173.4,50.5,173.5,50.6,173.4,50.9z"/>
	<path class="st6" d="M222.5,49.2c-0.3,1-0.6,1.9-0.8,2.8c-0.1,0.3-0.2,0.4-0.5,0.4c-2.9,0-5.7,0-8.7-0.1c1.7-0.1,1.7-1.2,1.7-2.4
		c0-2.3,0-4.6,0-6.9c0-1.2-0.2-2-1.6-2.1c1.7,0,3.5,0,5.2,0c-1.9,0.6-1.9,0.6-1.9,2.7c0,2.2,0,4.3,0,6.5c0,1,0.3,1.6,1.4,1.5
		c0.5-0.1,1.1,0,1.7,0c1.4,0.1,2.4-0.5,3-1.8c0.1-0.1,0.1-0.3,0.2-0.4C222.2,49.3,222.3,49.3,222.5,49.2z"/>
	<path class="st6" d="M233.1,49.2c-0.3,0.9-0.6,1.8-0.8,2.7c-0.1,0.3-0.2,0.4-0.5,0.4c-2.9,0-5.7,0-8.7-0.1c1.7-0.1,1.7-1.2,1.7-2.4
		c0-2.2,0-4.3,0-6.5c0-1.8,0-1.8-1.9-2.5c2,0,3.8,0,5.5,0c-1.9,0.7-1.9,0.7-1.9,2.8c0,2.2,0,4.3,0,6.5c0,1.1,0.4,1.6,1.5,1.5
		c0.5-0.1,0.9,0,1.4,0c1.5,0.1,2.5-0.5,3.1-1.9C232.7,49.5,232.7,49.3,233.1,49.2z"/>
	<path class="st5" d="M193,40.8c-1.8,0.7-1.8,0.7-1.8,2.7c0,2.2,0,4.5,0,6.7c0,0.9,0.3,1.4,1.3,1.3c0.5,0,1.1,0,1.7,0
		c1.5,0.1,2.6-0.6,3.2-2c0.1-0.2,0.1-0.4,0.5-0.4c-0.1,1-0.5,1.8-0.8,2.7c-0.1,0.3-0.3,0.4-0.6,0.4c-2.8,0-5.6,0-8.5-0.1
		c2.1-0.2,1.6-1.6,1.7-2.9c0-2,0-4.1,0-6.1c0-1.8,0-1.8-1.6-2.4C189.6,40.8,191.3,40.8,193,40.8z"/>
	<path class="st7" d="M162.8,52.3c-1.6,0-3.3,0-4.9,0c1.6-0.1,1.6-1.3,1.6-2.5c0-2.3,0-4.6,0-6.9c0-1.6,0-1.6-1.6-2.1
		c1.6,0,3.3,0,4.9,0c-1.9,0.1-1.6,1.5-1.6,2.6c0,2.2,0,4.3,0,6.5C161.2,51.7,161.2,51.7,162.8,52.3z"/>
	<path class="st8" d="M173.4,50.9c-0.1-0.1-0.2-0.2-0.3-0.3c0.3-0.4,0.6-0.8,0.9-1.2C174.2,50.1,173.8,50.5,173.4,50.9z"/>
	<path class="st1" d="M69.4,94.1c0.2-0.1,0.5-0.3,0.7-0.4c0.2-0.1,0.6-0.1,0.6,0.1c0.1,0.3-0.3,0.3-0.5,0.3
		C69.9,94.2,69.6,94.1,69.4,94.1z"/>
	<path class="st1" d="M113.7,27.4c0.1-0.1,0.2-0.2,0.2-0.2c0.3,0.3,0.2,0.6,0.2,1.1C113.9,27.9,113.8,27.7,113.7,27.4z"/>
	<path class="st9" d="M136.9,44c0-0.4,0-0.7,0-1.1c0-1.4,0.2-1.6,1.5-1.4c0.9,0.1,1.7,0.5,2,1.5c0.3,0.9,0.2,1.9-0.5,2.6
		c-0.7,0.7-1.7,0.8-2.6,0.8c-0.4,0-0.3-0.4-0.3-0.6C136.9,45.1,136.9,44.5,136.9,44z"/>
	<path class="st3" d="M240.2,41c-2.1-0.5-4.3-0.2-6.5-0.1c1.5,0.1,1.7,1,1.7,2.2c-0.1,2.2,0,4.4,0,6.6c0,1.2,0.1,2.4-1.6,2.5
		c1.6,0,3.2,0,4.8,0c-1.7-0.1-1.6-1.2-1.6-2.4c0-0.4,0-0.7,0-1.1c0-1.7,0-1.7,1.6-1.6c0.4,0,0.8,0,1.2-0.1c1.6-0.3,2.6-1.3,2.7-2.8
		C242.7,42.8,241.8,41.4,240.2,41z M240.6,44.4c-0.1,1.4-1.1,2.3-2.5,2.2c-0.7,0-1.1-0.2-1-1c0.1-0.5,0-1,0-1.5c0-0.4,0.1-0.8,0-1.2
		c-0.2-1.2,0.5-1.4,1.4-1.3C239.8,41.7,240.7,42.9,240.6,44.4z"/>
	<path class="st5" d="M182.8,52.2c1.5,0,3,0,4.5,0c-1.1-0.3-1.5-1.1-1.9-2c-1.2-2.9-2.5-5.9-3.7-8.8c-0.1-0.3-0.1-0.8-0.7-0.9
		c-1.3,3.1-2.7,6.3-4,9.4c-0.4,0.9-0.8,1.9-2,2.2c1.1,0.3,2.6,0.3,4,0.1c-1.5-0.5-1.6-0.6-1.4-1.3c0.3-1.9,1-2.4,2.8-2.4
		c0.5,0,1,0,1.5,0c1.1,0,1.6,0.7,2,2.4C184,51.8,183.3,51.9,182.8,52.2z M178.8,47.7c0.6-1.4,1.2-2.8,1.9-4.4
		c0.7,1.6,1.2,2.9,1.9,4.4C181.3,47.7,180.1,47.7,178.8,47.7z"/>
</g>
</svg>
