<?xml version="1.0" encoding="utf-8"?>
<!-- Generator: Adobe Illustrator 24.0.1, SVG Export Plug-In . SVG Version: 6.00 Build 0)  -->
<svg version="1.1" id="Layer_1" xmlns="http://www.w3.org/2000/svg" xmlns:xlink="http://www.w3.org/1999/xlink" x="0px" y="0px"
	 viewBox="0 0 500 300" style="enable-background:new 0 0 500 300;" xml:space="preserve">
<style type="text/css">
	.st0{fill:#3F3E3E;}
	.st1{fill:#A3363F;}
</style>
<g>
	<path class="st0" d="M40.1,101.9v17h-2.2v-17H40.1z"/>
	<path class="st0" d="M53.8,116.7c-0.4,0.7-1,1.3-1.8,1.7c-0.8,0.4-1.8,0.7-2.9,0.7c-1.1,0-2.1-0.2-3-0.6s-1.6-1-2.1-1.7
		s-0.8-1.5-0.9-2.4h2.3c0,0.5,0.2,1,0.5,1.4c0.3,0.5,0.7,0.8,1.2,1.1c0.5,0.3,1.2,0.4,1.9,0.4c1,0,1.7-0.3,2.2-0.8
		c0.5-0.5,0.8-1.2,0.8-2c0-0.7-0.2-1.3-0.5-1.7c-0.4-0.4-0.8-0.8-1.3-1c-0.5-0.2-1.3-0.5-2.2-0.8c-1.1-0.4-1.9-0.7-2.6-1
		c-0.7-0.3-1.2-0.8-1.7-1.4s-0.7-1.5-0.7-2.5c0-0.9,0.2-1.7,0.6-2.3s1-1.2,1.8-1.6c0.8-0.4,1.7-0.6,2.8-0.6c1.7,0,3,0.4,4,1.2
		c1,0.8,1.6,1.8,1.7,3.1h-2.4c-0.1-0.7-0.5-1.3-1-1.8s-1.3-0.8-2.3-0.8c-0.9,0-1.6,0.2-2.1,0.7s-0.8,1.1-0.8,1.9
		c0,0.7,0.2,1.2,0.5,1.6c0.3,0.4,0.8,0.7,1.3,1s1.2,0.5,2.1,0.8c1.1,0.4,2,0.7,2.6,1c0.7,0.3,1.2,0.8,1.7,1.5
		c0.5,0.7,0.7,1.5,0.7,2.6C54.3,115.3,54.1,116,53.8,116.7z"/>
	<path class="st0" d="M69.3,102.8c1.3,0.7,2.3,1.8,3,3.1c0.7,1.3,1.1,2.8,1.1,4.5c0,1.7-0.4,3.2-1.1,4.5c-0.7,1.3-1.7,2.4-3,3.1
		c-1.3,0.7-2.7,1.1-4.3,1.1s-3-0.4-4.3-1.1c-1.3-0.7-2.3-1.8-3-3.1c-0.7-1.3-1.1-2.8-1.1-4.5c0-1.7,0.4-3.2,1.1-4.5
		c0.7-1.3,1.7-2.4,3-3.1c1.3-0.7,2.7-1.1,4.3-1.1S68.1,102,69.3,102.8z M61.9,104.5c-0.9,0.5-1.6,1.3-2.2,2.3
		c-0.5,1-0.8,2.2-0.8,3.5c0,1.3,0.3,2.5,0.8,3.5c0.5,1,1.2,1.8,2.2,2.3c0.9,0.5,2,0.8,3.1,0.8c1.2,0,2.2-0.3,3.1-0.8
		c0.9-0.5,1.6-1.3,2.2-2.3c0.5-1,0.8-2.2,0.8-3.5c0-1.3-0.3-2.5-0.8-3.5c-0.5-1-1.2-1.8-2.2-2.3c-0.9-0.5-2-0.8-3.1-0.8
		C63.9,103.7,62.8,104,61.9,104.5z"/>
	<path class="st0" d="M85.5,116.5c0.6,0.5,1.3,0.8,2.3,0.8c1.3,0,2.4-0.5,3.1-1.6s1-2.7,1-5c0-0.4,0-0.8,0-1c-0.2,1-0.8,1.7-1.6,2.3
		c-0.9,0.6-1.9,0.9-3.1,0.9c-1.7,0-3-0.5-4-1.5s-1.4-2.4-1.4-4.2c0-1.1,0.2-2,0.6-2.9c0.4-0.9,1.1-1.6,1.9-2.1
		c0.9-0.5,1.9-0.8,3.2-0.8c2.4,0,4.1,0.8,5,2.3c0.9,1.5,1.4,3.6,1.4,6.2c0,3-0.5,5.3-1.4,6.8c-0.9,1.6-2.5,2.3-4.7,2.3
		c-1.6,0-2.9-0.5-3.8-1.4c-0.9-0.9-1.5-2.1-1.6-3.6h2.1C84.5,115.1,84.9,115.9,85.5,116.5z M90.6,104.6c-0.7-0.8-1.7-1.2-3.1-1.2
		c-1.1,0-2,0.3-2.7,1s-1,1.6-1,2.8c0,1.3,0.3,2.3,1,3c0.7,0.7,1.6,1,2.8,1c0.7,0,1.3-0.1,1.9-0.4c0.6-0.3,1.1-0.7,1.5-1.3
		c0.4-0.6,0.6-1.2,0.6-2C91.6,106.4,91.3,105.4,90.6,104.6z"/>
	<path class="st0" d="M96.6,110.3c0-2.7,0.4-4.8,1.3-6.4c0.9-1.5,2.5-2.3,4.7-2.3c2.2,0,3.8,0.8,4.7,2.3s1.4,3.6,1.4,6.3
		c0,2.7-0.5,4.9-1.4,6.4c-0.9,1.5-2.5,2.3-4.7,2.3c-2.2,0-3.8-0.8-4.7-2.3C97,115.1,96.6,113,96.6,110.3z M106.5,110.3
		c0-1.4-0.1-2.5-0.3-3.5c-0.2-0.9-0.6-1.7-1.1-2.2s-1.4-0.8-2.4-0.8c-1,0-1.8,0.3-2.4,0.8c-0.6,0.6-0.9,1.3-1.1,2.2
		c-0.2,0.9-0.3,2.1-0.3,3.5c0,1.4,0.1,2.6,0.3,3.5s0.6,1.7,1.1,2.3c0.6,0.6,1.4,0.8,2.4,0.8c1.1,0,1.9-0.3,2.4-0.8
		c0.6-0.6,0.9-1.3,1.1-2.3C106.4,112.8,106.5,111.7,106.5,110.3z"/>
	<path class="st0" d="M111.4,110.3c0-2.7,0.4-4.8,1.3-6.4c0.9-1.5,2.5-2.3,4.7-2.3c2.2,0,3.8,0.8,4.7,2.3s1.4,3.6,1.4,6.3
		c0,2.7-0.5,4.9-1.4,6.4c-0.9,1.5-2.5,2.3-4.7,2.3c-2.2,0-3.8-0.8-4.7-2.3C111.8,115.1,111.4,113,111.4,110.3z M121.3,110.3
		c0-1.4-0.1-2.5-0.3-3.5c-0.2-0.9-0.6-1.7-1.1-2.2s-1.4-0.8-2.4-0.8c-1,0-1.8,0.3-2.4,0.8c-0.6,0.6-0.9,1.3-1.1,2.2
		c-0.2,0.9-0.3,2.1-0.3,3.5c0,1.4,0.1,2.6,0.3,3.5s0.6,1.7,1.1,2.3c0.6,0.6,1.4,0.8,2.4,0.8c1.1,0,1.9-0.3,2.4-0.8
		c0.6-0.6,0.9-1.3,1.1-2.3C121.2,112.8,121.3,111.7,121.3,110.3z"/>
	<path class="st0" d="M125.1,103.9v-2h4.9v17h-2.3v-14.9H125.1z"/>
	<path class="st0" d="M141.3,105.9v2.6h-2.7v-2.6H141.3z M141.3,116.3v2.6h-2.7v-2.6H141.3z"/>
	<path class="st0" d="M155.8,111.7c1.6-1.8,2.5-3.5,2.5-5c0-1-0.2-1.7-0.7-2.3c-0.5-0.6-1.3-0.9-2.4-0.9c-1.1,0-2,0.4-2.6,1.1
		c-0.6,0.7-0.9,1.7-1,3h-2.2c0.1-1.9,0.7-3.4,1.8-4.4c1.1-1,2.4-1.5,4.1-1.5c1.6,0,2.9,0.4,3.8,1.3c0.9,0.9,1.4,2.1,1.4,3.6
		c0,1.3-0.4,2.6-1.2,3.9c-0.8,1.3-1.9,2.6-3.1,3.7c-1.2,1.1-2.5,2.1-3.8,2.9h8.6v1.8h-11.7v-1.6
		C151.9,115.4,154.1,113.5,155.8,111.7z"/>
	<path class="st0" d="M163.2,110.3c0-2.7,0.4-4.8,1.3-6.4c0.9-1.5,2.5-2.3,4.7-2.3c2.2,0,3.8,0.8,4.7,2.3s1.4,3.6,1.4,6.3
		c0,2.7-0.5,4.9-1.4,6.4c-0.9,1.5-2.5,2.3-4.7,2.3c-2.2,0-3.8-0.8-4.7-2.3C163.7,115.1,163.2,113,163.2,110.3z M173.1,110.3
		c0-1.4-0.1-2.5-0.3-3.5c-0.2-0.9-0.6-1.7-1.1-2.2s-1.4-0.8-2.4-0.8c-1,0-1.8,0.3-2.4,0.8c-0.6,0.6-0.9,1.3-1.1,2.2
		c-0.2,0.9-0.3,2.1-0.3,3.5c0,1.4,0.1,2.6,0.3,3.5s0.6,1.7,1.1,2.3c0.6,0.6,1.4,0.8,2.4,0.8c1.1,0,1.9-0.3,2.4-0.8
		c0.6-0.6,0.9-1.3,1.1-2.3C173,112.8,173.1,111.7,173.1,110.3z"/>
	<path class="st0" d="M177,103.9v-2h4.9v17h-2.3v-14.9H177z"/>
	<path class="st0" d="M196.4,103.6h-8.7v5.7c0.4-0.5,1-1,1.7-1.3c0.8-0.3,1.6-0.5,2.5-0.5c1.2,0,2.2,0.3,3,0.8
		c0.8,0.5,1.4,1.2,1.8,2c0.4,0.8,0.6,1.7,0.6,2.8c0,1.8-0.5,3.2-1.5,4.3c-1,1.1-2.4,1.7-4.3,1.7c-1.7,0-3.1-0.5-4.2-1.4
		c-1.1-0.9-1.7-2.2-1.8-3.7h2.2c0.2,1,0.6,1.8,1.2,2.3c0.7,0.6,1.5,0.8,2.5,0.8c1.2,0,2.2-0.4,2.8-1.1c0.6-0.7,0.9-1.7,0.9-2.9
		c0-1.2-0.3-2.1-1-2.7c-0.6-0.7-1.6-1-2.7-1c-0.8,0-1.6,0.2-2.2,0.5c-0.6,0.4-1.1,0.8-1.4,1.5h-2.1v-9.6h10.7V103.6z"/>
	<path class="st0" d="M218.8,103.3c1.3,1,2.3,2.4,2.8,4.2h-2.3c-0.4-1.1-1.1-2-2.1-2.7c-1-0.7-2.1-1-3.5-1c-1.1,0-2.1,0.3-3,0.8
		c-0.9,0.5-1.6,1.3-2.1,2.3c-0.5,1-0.8,2.2-0.8,3.5c0,1.3,0.3,2.5,0.8,3.5c0.5,1,1.2,1.8,2.1,2.3c0.9,0.5,1.9,0.8,3,0.8
		c1.4,0,2.6-0.3,3.5-1c1-0.7,1.7-1.6,2.1-2.7h2.3c-0.5,1.8-1.4,3.2-2.8,4.2c-1.3,1-3.1,1.5-5.1,1.5c-1.6,0-3-0.4-4.2-1.1
		c-1.2-0.7-2.2-1.8-2.9-3.1c-0.7-1.3-1-2.8-1-4.5c0-1.7,0.3-3.2,1-4.5c0.7-1.3,1.6-2.3,2.9-3.1c1.2-0.7,2.6-1.1,4.2-1.1
		C215.7,101.7,217.4,102.2,218.8,103.3z"/>
	<path class="st0" d="M236.6,112.7H226c0,1.5,0.5,2.6,1.3,3.4c0.8,0.8,1.8,1.1,3,1.1c1.1,0,1.9-0.3,2.7-0.8s1.2-1.3,1.3-2.2h2.3
		c-0.2,0.9-0.5,1.7-1.1,2.5c-0.6,0.7-1.3,1.3-2.2,1.7c-0.9,0.4-1.9,0.6-3,0.6c-1.3,0-2.4-0.3-3.4-0.8c-1-0.5-1.7-1.3-2.3-2.3
		c-0.6-1-0.8-2.2-0.8-3.6c0-1.4,0.3-2.6,0.8-3.6s1.3-1.8,2.3-2.4c1-0.5,2.1-0.8,3.4-0.8c1.3,0,2.4,0.3,3.4,0.8
		c1,0.5,1.7,1.3,2.2,2.2c0.5,0.9,0.8,1.9,0.8,3C236.7,112,236.7,112.4,236.6,112.7z M234,109.2c-0.4-0.7-0.9-1.1-1.5-1.5
		c-0.6-0.3-1.3-0.5-2.1-0.5c-1.2,0-2.2,0.4-3,1.1s-1.3,1.8-1.3,3.3h8.5C234.5,110.7,234.4,109.9,234,109.2z"/>
	<path class="st0" d="M243.7,106.2c0.8-0.5,1.8-0.8,3-0.8v2.4H246c-1.2,0-2.2,0.3-3,1c-0.8,0.6-1.2,1.7-1.2,3.1v7h-2.2v-13.2h2.2
		v2.7C242.2,107.4,242.8,106.7,243.7,106.2z"/>
	<path class="st0" d="M255.1,117v1.9h-1.6c-1.3,0-2.4-0.3-3-1c-0.7-0.6-1-1.7-1-3.2v-7.1h-2v-1.9h2v-3.3h2.2v3.3h3.4v1.9h-3.4v7.2
		c0,0.9,0.2,1.4,0.5,1.7c0.3,0.3,0.9,0.5,1.6,0.5H255.1z"/>
	<path class="st0" d="M257.8,100.8c0.3-0.2,0.6-0.4,1.1-0.4s0.8,0.1,1.1,0.4s0.4,0.6,0.4,1c0,0.4-0.1,0.7-0.4,1s-0.6,0.4-1.1,0.4
		s-0.8-0.1-1.1-0.4s-0.4-0.6-0.4-1C257.4,101.4,257.6,101,257.8,100.8z M260,105.7v13.2h-2.2v-13.2H260z"/>
	<path class="st0" d="M266.9,103.1c-0.5,0.4-0.7,1.1-0.7,2.2v0.4h3.1v1.9h-3.1v11.3h-2.2v-11.3h-1.9v-1.9h1.9v-0.5
		c0-3.2,1.8-4.7,5.3-4.5v1.9C268.2,102.5,267.4,102.7,266.9,103.1z"/>
	<path class="st0" d="M271.8,100.8c0.3-0.2,0.6-0.4,1.1-0.4c0.4,0,0.8,0.1,1.1,0.4s0.4,0.6,0.4,1c0,0.4-0.1,0.7-0.4,1
		s-0.6,0.4-1.1,0.4c-0.5,0-0.8-0.1-1.1-0.4s-0.4-0.6-0.4-1C271.4,101.4,271.5,101,271.8,100.8z M274,105.7v13.2h-2.2v-13.2H274z"/>
	<path class="st0" d="M289.6,112.7H279c0,1.5,0.5,2.6,1.3,3.4c0.8,0.8,1.8,1.1,3,1.1c1.1,0,1.9-0.3,2.7-0.8s1.2-1.3,1.3-2.2h2.3
		c-0.2,0.9-0.5,1.7-1.1,2.5c-0.6,0.7-1.3,1.3-2.2,1.7c-0.9,0.4-1.9,0.6-3,0.6c-1.3,0-2.4-0.3-3.4-0.8c-1-0.5-1.7-1.3-2.3-2.3
		c-0.6-1-0.8-2.2-0.8-3.6c0-1.4,0.3-2.6,0.8-3.6c0.6-1,1.3-1.8,2.3-2.4c1-0.5,2.1-0.8,3.4-0.8c1.3,0,2.4,0.3,3.4,0.8
		c1,0.5,1.7,1.3,2.2,2.2c0.5,0.9,0.8,1.9,0.8,3C289.6,112,289.6,112.4,289.6,112.7z M286.9,109.2c-0.4-0.7-0.9-1.1-1.5-1.5
		c-0.6-0.3-1.3-0.5-2.1-0.5c-1.2,0-2.2,0.4-3,1.1s-1.3,1.8-1.3,3.3h8.5C287.5,110.7,287.3,109.9,286.9,109.2z"/>
	<path class="st0" d="M301.2,106.5c0.9,0.6,1.5,1.5,1.9,2.6v-8h2.2v17.8h-2.2v-3.4c-0.4,1.1-1,1.9-1.9,2.6c-0.9,0.6-2,1-3.3,1
		c-1.2,0-2.2-0.3-3.1-0.8c-0.9-0.5-1.6-1.3-2.2-2.3c-0.5-1-0.8-2.2-0.8-3.6c0-1.4,0.3-2.6,0.8-3.6s1.2-1.8,2.2-2.4
		c0.9-0.5,2-0.8,3.1-0.8C299.2,105.5,300.3,105.8,301.2,106.5z M295.3,108.7c-0.8,0.9-1.2,2-1.2,3.6c0,1.5,0.4,2.7,1.2,3.6
		c0.8,0.9,1.9,1.3,3.2,1.3c0.9,0,1.6-0.2,2.3-0.6c0.7-0.4,1.2-1,1.6-1.7c0.4-0.7,0.6-1.6,0.6-2.5c0-1-0.2-1.8-0.6-2.6
		c-0.4-0.7-0.9-1.3-1.6-1.7c-0.7-0.4-1.5-0.6-2.3-0.6C297.2,107.4,296.1,107.9,295.3,108.7z"/>
	<path class="st0" d="M25.2,134v17H23v-17H25.2z"/>
	<path class="st0" d="M38.8,148.9c-0.4,0.7-1,1.3-1.8,1.7c-0.8,0.4-1.8,0.7-2.9,0.7c-1.1,0-2.1-0.2-3-0.6s-1.6-1-2.1-1.7
		s-0.8-1.5-0.9-2.4h2.3c0,0.5,0.2,1,0.5,1.4c0.3,0.5,0.7,0.8,1.2,1.1c0.5,0.3,1.2,0.4,1.9,0.4c1,0,1.7-0.3,2.2-0.8
		c0.5-0.5,0.8-1.2,0.8-2c0-0.7-0.2-1.3-0.5-1.7c-0.4-0.4-0.8-0.8-1.3-1c-0.5-0.2-1.3-0.5-2.2-0.8c-1.1-0.4-1.9-0.7-2.6-1
		c-0.7-0.3-1.2-0.8-1.7-1.4s-0.7-1.5-0.7-2.5c0-0.9,0.2-1.7,0.6-2.3s1-1.2,1.8-1.6c0.8-0.4,1.7-0.6,2.8-0.6c1.7,0,3,0.4,4,1.2
		c1,0.8,1.6,1.8,1.7,3.1h-2.4c-0.1-0.7-0.5-1.3-1-1.8s-1.3-0.8-2.3-0.8c-0.9,0-1.6,0.2-2.1,0.7s-0.8,1.1-0.8,1.9
		c0,0.7,0.2,1.2,0.5,1.6c0.3,0.4,0.8,0.7,1.3,1s1.2,0.5,2.1,0.8c1.1,0.4,2,0.7,2.6,1c0.7,0.3,1.2,0.8,1.7,1.5
		c0.5,0.7,0.7,1.5,0.7,2.6C39.4,147.4,39.2,148.2,38.8,148.9z"/>
	<path class="st0" d="M54.4,134.9c1.3,0.7,2.3,1.8,3,3.1c0.7,1.3,1.1,2.8,1.1,4.5c0,1.7-0.4,3.2-1.1,4.5c-0.7,1.3-1.7,2.4-3,3.1
		c-1.3,0.7-2.7,1.1-4.3,1.1s-3-0.4-4.3-1.1c-1.3-0.7-2.3-1.8-3-3.1c-0.7-1.3-1.1-2.8-1.1-4.5c0-1.7,0.4-3.2,1.1-4.5
		c0.7-1.3,1.7-2.4,3-3.1c1.3-0.7,2.7-1.1,4.3-1.1S53.1,134.2,54.4,134.9z M47,136.7c-0.9,0.5-1.6,1.3-2.2,2.3
		c-0.5,1-0.8,2.2-0.8,3.5c0,1.3,0.3,2.5,0.8,3.5c0.5,1,1.2,1.8,2.2,2.3c0.9,0.5,2,0.8,3.1,0.8c1.2,0,2.2-0.3,3.1-0.8
		c0.9-0.5,1.6-1.3,2.2-2.3c0.5-1,0.8-2.2,0.8-3.5c0-1.3-0.3-2.5-0.8-3.5c-0.5-1-1.2-1.8-2.2-2.3c-0.9-0.5-2-0.8-3.1-0.8
		C49,135.9,47.9,136.1,47,136.7z"/>
	<path class="st0" d="M65.9,136.1v-2h4.9v17h-2.3v-14.9H65.9z"/>
	<path class="st0" d="M82.6,134.1c0.8,0.4,1.4,0.9,1.8,1.6c0.4,0.7,0.6,1.4,0.6,2.3c0,1.1-0.3,2-0.9,2.7c-0.6,0.7-1.5,1.2-2.7,1.3
		v0.1c1.2,0.3,2.2,0.8,2.9,1.5c0.7,0.7,1,1.6,1,2.8c0,1.4-0.5,2.5-1.4,3.4c-0.9,0.9-2.3,1.3-4,1.3c-1.8,0-3.2-0.5-4.3-1.4
		s-1.7-2.2-1.9-4h2.2c0.1,1.1,0.6,1.9,1.2,2.5s1.6,0.9,2.7,0.9c1.1,0,1.9-0.3,2.5-0.8c0.6-0.6,0.9-1.3,0.9-2.2
		c0-1.1-0.4-1.9-1.2-2.4c-0.8-0.6-2-0.8-3.5-0.8h-0.6v-1.8h0.6c3,0,4.4-1,4.4-3c0-0.9-0.3-1.6-0.8-2.1s-1.3-0.8-2.3-0.8
		s-1.8,0.3-2.4,0.8c-0.7,0.6-1,1.4-1.2,2.4H74c0.1-1.6,0.7-2.9,1.7-3.8c1-0.9,2.4-1.4,4.1-1.4C80.8,133.6,81.8,133.8,82.6,134.1z"/>
	<path class="st0" d="M87.5,147.1v-1.8l8.7-11.4h2.4v11.3h2.5v1.9h-2.5v3.9h-2.2v-3.9H87.5z M96.5,136.6l-6.7,8.6h6.7V136.6z"/>
	<path class="st0" d="M104.1,135.7c0.4-0.7,1.1-1.2,2-1.6c0.9-0.4,1.9-0.6,3.2-0.6c1.2,0,2.3,0.2,3.1,0.6c0.9,0.4,1.5,0.9,2,1.6
		c0.4,0.7,0.7,1.5,0.7,2.3c0,0.9-0.3,1.8-0.8,2.5c-0.5,0.7-1.3,1.2-2.3,1.5c1.1,0.3,2,0.8,2.6,1.6c0.6,0.8,0.9,1.7,0.9,2.8
		c0,1.6-0.6,2.9-1.7,3.8c-1.1,0.9-2.7,1.4-4.6,1.4c-1.9,0-3.4-0.5-4.6-1.4c-1.1-0.9-1.7-2.2-1.7-3.8c0-1.1,0.3-2,0.9-2.8
		c0.6-0.8,1.5-1.3,2.6-1.6c-1-0.3-1.8-0.8-2.3-1.5c-0.5-0.7-0.8-1.5-0.8-2.5C103.4,137.2,103.6,136.4,104.1,135.7z M106.2,148.8
		c0.7,0.6,1.7,0.9,3,0.9c1.3,0,2.2-0.3,3-0.9c0.7-0.6,1.1-1.5,1.1-2.5c0-1.1-0.4-1.9-1.2-2.5c-0.8-0.6-1.8-0.8-2.9-0.8
		c-1.2,0-2.2,0.3-3,0.8c-0.8,0.6-1.2,1.4-1.2,2.5C105.1,147.3,105.5,148.2,106.2,148.8z M106.5,140.6c0.7,0.5,1.6,0.8,2.7,0.8
		c1.1,0,2-0.3,2.7-0.8c0.7-0.5,1-1.3,1-2.2c0-1-0.3-1.7-1-2.2c-0.7-0.5-1.5-0.8-2.7-0.8c-1.1,0-2,0.3-2.7,0.8c-0.7,0.5-1,1.3-1,2.2
		C105.6,139.3,105.9,140.1,106.5,140.6z"/>
	<path class="st0" d="M129.6,135.8h-8.7v5.7c0.4-0.5,1-1,1.7-1.3c0.8-0.3,1.6-0.5,2.5-0.5c1.2,0,2.2,0.3,3,0.8
		c0.8,0.5,1.4,1.2,1.8,2c0.4,0.8,0.6,1.7,0.6,2.8c0,1.8-0.5,3.2-1.5,4.3c-1,1.1-2.4,1.7-4.3,1.7c-1.7,0-3.1-0.5-4.2-1.4
		c-1.1-0.9-1.7-2.2-1.8-3.7h2.2c0.2,1,0.6,1.8,1.2,2.3c0.7,0.6,1.5,0.8,2.5,0.8c1.2,0,2.2-0.4,2.8-1.1c0.6-0.7,0.9-1.7,0.9-2.9
		c0-1.2-0.3-2.1-1-2.7c-0.6-0.7-1.6-1-2.7-1c-0.8,0-1.6,0.2-2.2,0.5c-0.6,0.4-1.1,0.8-1.4,1.5h-2.1v-9.6h10.7V135.8z"/>
	<path class="st0" d="M141.2,138v2.6h-2.7V138H141.2z M141.2,148.4v2.6h-2.7v-2.6H141.2z"/>
	<path class="st0" d="M155.7,143.9c1.6-1.8,2.5-3.5,2.5-5c0-1-0.2-1.7-0.7-2.3c-0.5-0.6-1.3-0.9-2.4-0.9c-1.1,0-2,0.4-2.6,1.1
		c-0.6,0.7-0.9,1.7-1,3h-2.2c0.1-1.9,0.7-3.4,1.8-4.4c1.1-1,2.4-1.5,4.1-1.5c1.6,0,2.9,0.4,3.8,1.3c0.9,0.9,1.4,2.1,1.4,3.6
		c0,1.3-0.4,2.6-1.2,3.9c-0.8,1.3-1.9,2.6-3.1,3.7c-1.2,1.1-2.5,2.1-3.8,2.9h8.6v1.8h-11.7v-1.6C151.8,147.5,154,145.7,155.7,143.9z
		"/>
	<path class="st0" d="M163.1,142.4c0-2.7,0.4-4.8,1.3-6.4c0.9-1.5,2.5-2.3,4.7-2.3c2.2,0,3.8,0.8,4.7,2.3s1.4,3.6,1.4,6.3
		c0,2.7-0.5,4.9-1.4,6.4c-0.9,1.5-2.5,2.3-4.7,2.3c-2.2,0-3.8-0.8-4.7-2.3C163.6,147.3,163.1,145.1,163.1,142.4z M173,142.4
		c0-1.4-0.1-2.5-0.3-3.5c-0.2-0.9-0.6-1.7-1.1-2.2s-1.4-0.8-2.4-0.8c-1,0-1.8,0.3-2.4,0.8c-0.6,0.6-0.9,1.3-1.1,2.2
		c-0.2,0.9-0.3,2.1-0.3,3.5c0,1.4,0.1,2.6,0.3,3.5s0.6,1.7,1.1,2.3c0.6,0.6,1.4,0.8,2.4,0.8c1.1,0,1.9-0.3,2.4-0.8
		c0.6-0.6,0.9-1.3,1.1-2.3C172.9,145,173,143.8,173,142.4z"/>
	<path class="st0" d="M176.9,136.1v-2h4.9v17h-2.3v-14.9H176.9z"/>
	<path class="st0" d="M193.4,136.2c-0.6-0.6-1.3-0.8-2.3-0.8c-1.4,0-2.4,0.5-3.1,1.6c-0.7,1.1-1,2.7-1,5l0,0.9
		c0.2-1,0.8-1.7,1.7-2.3c0.9-0.6,1.9-0.9,3.1-0.9c1.7,0,3,0.5,4,1.5c1,1,1.4,2.4,1.4,4.2c0,1.1-0.2,2-0.6,2.9
		c-0.4,0.9-1.1,1.5-1.9,2c-0.9,0.5-1.9,0.8-3.2,0.8c-2.4,0-4.1-0.8-5-2.3s-1.4-3.6-1.4-6.2c0-3,0.5-5.3,1.5-6.8
		c1-1.5,2.6-2.3,4.8-2.3c1.6,0,2.9,0.5,3.7,1.4c0.9,0.9,1.4,2.1,1.6,3.6h-2.1C194.3,137.5,194,136.8,193.4,136.2z M188.2,148.1
		c0.7,0.8,1.7,1.2,3.1,1.2c1.1,0,2-0.3,2.7-1c0.7-0.7,1-1.6,1-2.8c0-1.3-0.3-2.3-1-3c-0.7-0.7-1.6-1-2.8-1c-0.7,0-1.3,0.1-1.9,0.4
		c-0.6,0.3-1.1,0.7-1.5,1.2s-0.6,1.2-0.6,2C187.2,146.3,187.6,147.3,188.2,148.1z"/>
	<path class="st0" d="M218.8,135.4c1.3,1,2.3,2.4,2.8,4.2h-2.3c-0.4-1.1-1.1-2-2.1-2.7c-1-0.7-2.1-1-3.5-1c-1.1,0-2.1,0.3-3,0.8
		c-0.9,0.5-1.6,1.3-2.1,2.3c-0.5,1-0.8,2.2-0.8,3.5c0,1.3,0.3,2.5,0.8,3.5c0.5,1,1.2,1.8,2.1,2.3c0.9,0.5,1.9,0.8,3,0.8
		c1.4,0,2.6-0.3,3.5-1c1-0.7,1.7-1.6,2.1-2.7h2.3c-0.5,1.8-1.4,3.2-2.8,4.2c-1.3,1-3.1,1.5-5.1,1.5c-1.6,0-3-0.4-4.2-1.1
		c-1.2-0.7-2.2-1.8-2.9-3.1c-0.7-1.3-1-2.8-1-4.5c0-1.7,0.3-3.2,1-4.5c0.7-1.3,1.6-2.3,2.9-3.1c1.2-0.7,2.6-1.1,4.2-1.1
		C215.7,133.9,217.4,134.4,218.8,135.4z"/>
	<path class="st0" d="M236.6,144.9H226c0,1.5,0.5,2.6,1.3,3.4c0.8,0.8,1.8,1.1,3,1.1c1.1,0,1.9-0.3,2.7-0.8s1.2-1.3,1.3-2.2h2.3
		c-0.2,0.9-0.5,1.7-1.1,2.5c-0.6,0.7-1.3,1.3-2.2,1.7c-0.9,0.4-1.9,0.6-3,0.6c-1.3,0-2.4-0.3-3.4-0.8c-1-0.5-1.7-1.3-2.3-2.3
		c-0.6-1-0.8-2.2-0.8-3.6c0-1.4,0.3-2.6,0.8-3.6s1.3-1.8,2.3-2.4c1-0.5,2.1-0.8,3.4-0.8c1.3,0,2.4,0.3,3.4,0.8
		c1,0.5,1.7,1.3,2.2,2.2c0.5,0.9,0.8,1.9,0.8,3C236.7,144.1,236.7,144.5,236.6,144.9z M234,141.4c-0.4-0.7-0.9-1.1-1.5-1.5
		c-0.6-0.3-1.3-0.5-2.1-0.5c-1.2,0-2.2,0.4-3,1.1s-1.3,1.8-1.3,3.3h8.5C234.5,142.8,234.4,142,234,141.4z"/>
	<path class="st0" d="M243.7,138.3c0.8-0.5,1.8-0.8,3-0.8v2.4H246c-1.2,0-2.2,0.3-3,1c-0.8,0.6-1.2,1.7-1.2,3.1v7h-2.2v-13.2h2.2
		v2.7C242.2,139.5,242.8,138.8,243.7,138.3z"/>
	<path class="st0" d="M255.1,149.1v1.9h-1.6c-1.3,0-2.4-0.3-3-1c-0.7-0.6-1-1.7-1-3.2v-7.1h-2v-1.9h2v-3.3h2.2v3.3h3.4v1.9h-3.4v7.2
		c0,0.9,0.2,1.4,0.5,1.7c0.3,0.3,0.9,0.5,1.6,0.5H255.1z"/>
	<path class="st0" d="M257.8,132.9c0.3-0.2,0.6-0.4,1.1-0.4s0.8,0.1,1.1,0.4s0.4,0.6,0.4,1c0,0.4-0.1,0.7-0.4,1s-0.6,0.4-1.1,0.4
		s-0.8-0.1-1.1-0.4s-0.4-0.6-0.4-1C257.4,133.5,257.6,133.2,257.8,132.9z M260,137.8V151h-2.2v-13.2H260z"/>
	<path class="st0" d="M266.9,135.3c-0.5,0.4-0.7,1.1-0.7,2.2v0.4h3.1v1.9h-3.1V151h-2.2v-11.3h-1.9v-1.9h1.9v-0.5
		c0-3.2,1.8-4.7,5.3-4.5v1.9C268.2,134.6,267.4,134.8,266.9,135.3z"/>
	<path class="st0" d="M271.8,132.9c0.3-0.2,0.6-0.4,1.1-0.4c0.4,0,0.8,0.1,1.1,0.4s0.4,0.6,0.4,1c0,0.4-0.1,0.7-0.4,1
		s-0.6,0.4-1.1,0.4c-0.5,0-0.8-0.1-1.1-0.4s-0.4-0.6-0.4-1C271.4,133.5,271.5,133.2,271.8,132.9z M274,137.8V151h-2.2v-13.2H274z"/>
	<path class="st0" d="M289.6,144.9H279c0,1.5,0.5,2.6,1.3,3.4c0.8,0.8,1.8,1.1,3,1.1c1.1,0,1.9-0.3,2.7-0.8s1.2-1.3,1.3-2.2h2.3
		c-0.2,0.9-0.5,1.7-1.1,2.5c-0.6,0.7-1.3,1.3-2.2,1.7c-0.9,0.4-1.9,0.6-3,0.6c-1.3,0-2.4-0.3-3.4-0.8c-1-0.5-1.7-1.3-2.3-2.3
		c-0.6-1-0.8-2.2-0.8-3.6c0-1.4,0.3-2.6,0.8-3.6c0.6-1,1.3-1.8,2.3-2.4c1-0.5,2.1-0.8,3.4-0.8c1.3,0,2.4,0.3,3.4,0.8
		c1,0.5,1.7,1.3,2.2,2.2c0.5,0.9,0.8,1.9,0.8,3C289.6,144.1,289.6,144.5,289.6,144.9z M286.9,141.4c-0.4-0.7-0.9-1.1-1.5-1.5
		c-0.6-0.3-1.3-0.5-2.1-0.5c-1.2,0-2.2,0.4-3,1.1s-1.3,1.8-1.3,3.3h8.5C287.5,142.8,287.3,142,286.9,141.4z"/>
	<path class="st0" d="M301.2,138.6c0.9,0.6,1.5,1.5,1.9,2.6v-8h2.2V151h-2.2v-3.4c-0.4,1.1-1,1.9-1.9,2.6c-0.9,0.6-2,1-3.3,1
		c-1.2,0-2.2-0.3-3.1-0.8c-0.9-0.5-1.6-1.3-2.2-2.3c-0.5-1-0.8-2.2-0.8-3.6c0-1.4,0.3-2.6,0.8-3.6s1.2-1.8,2.2-2.4
		c0.9-0.5,2-0.8,3.1-0.8C299.2,137.6,300.3,137.9,301.2,138.6z M295.3,140.9c-0.8,0.9-1.2,2-1.2,3.6c0,1.5,0.4,2.7,1.2,3.6
		c0.8,0.9,1.9,1.3,3.2,1.3c0.9,0,1.6-0.2,2.3-0.6c0.7-0.4,1.2-1,1.6-1.7c0.4-0.7,0.6-1.6,0.6-2.5c0-1-0.2-1.8-0.6-2.6
		c-0.4-0.7-0.9-1.3-1.6-1.7c-0.7-0.4-1.5-0.6-2.3-0.6C297.2,139.6,296.1,140,295.3,140.9z"/>
	<path class="st0" d="M60.7,166.2l-4.3,17h-2.7l-3.9-13.9l-3.9,13.9h-2.7l-4.3-17h2.4l3.3,14.4l4-14.4H51l4,14.4l3.3-14.4H60.7z"/>
	<path class="st0" d="M76.4,166.2v17h-2.2v-7.9h-8.6v7.9h-2.2v-17h2.2v7.4h8.6v-7.4H76.4z"/>
	<path class="st0" d="M91.9,167.1c1.3,0.7,2.3,1.8,3,3.1s1.1,2.8,1.1,4.5s-0.4,3.2-1.1,4.5s-1.7,2.4-3,3.1c-1.3,0.7-2.7,1.1-4.3,1.1
		s-3-0.4-4.3-1.1c-1.3-0.7-2.3-1.8-3-3.1c-0.7-1.3-1.1-2.8-1.1-4.5s0.4-3.2,1.1-4.5c0.7-1.3,1.7-2.4,3-3.1c1.3-0.7,2.7-1.1,4.3-1.1
		S90.7,166.3,91.9,167.1z M84.5,168.8c-0.9,0.5-1.6,1.3-2.2,2.3c-0.5,1-0.8,2.2-0.8,3.5c0,1.3,0.3,2.5,0.8,3.5
		c0.5,1,1.2,1.8,2.2,2.3s2,0.8,3.1,0.8c1.2,0,2.2-0.3,3.1-0.8c0.9-0.5,1.6-1.3,2.2-2.3c0.5-1,0.8-2.2,0.8-3.5c0-1.3-0.3-2.5-0.8-3.5
		c-0.5-1-1.2-1.8-2.2-2.3c-0.9-0.5-2-0.8-3.1-0.8C86.5,168,85.4,168.3,84.5,168.8z"/>
	<path class="st0" d="M112.4,173.4v1.9h-9.6v-1.9H112.4z"/>
	<path class="st0" d="M135.4,167.5c1.3,1,2.2,2.3,2.7,4h-2.3c-0.4-1-1.1-1.9-2-2.5c-0.9-0.6-2.1-0.9-3.3-0.9c-1.2,0-2.2,0.3-3.1,0.8
		c-0.9,0.5-1.6,1.3-2.2,2.3c-0.5,1-0.8,2.2-0.8,3.5c0,1.4,0.3,2.6,0.8,3.6s1.3,1.8,2.2,2.3s2,0.8,3.2,0.8c1,0,2-0.2,2.9-0.7
		s1.6-1.1,2.1-2s0.9-1.9,1-3h-6.7v-1.6h8.5v2c-0.1,1.3-0.6,2.6-1.3,3.7c-0.7,1.1-1.6,2-2.8,2.6c-1.2,0.6-2.5,1-4,1
		c-1.6,0-3.1-0.4-4.3-1.1c-1.3-0.7-2.2-1.8-2.9-3.1c-0.7-1.3-1-2.8-1-4.5c0-1.7,0.3-3.2,1-4.5c0.7-1.3,1.7-2.3,2.9-3.1
		c1.3-0.7,2.7-1.1,4.3-1.1C132.4,166,134,166.5,135.4,167.5z"/>
	<path class="st0" d="M158.4,166.5v16.7h-2.2v-13.3l-5.3,13.3h-2l-5.4-13.3v13.3h-2.2v-16.7h2.6l5.9,14l5.8-14H158.4z"/>
	<path class="st0" d="M164.2,176.3v6.8H162v-17h5.4c1.9,0,3.4,0.5,4.4,1.4c1,0.9,1.4,2.1,1.4,3.7c0,1.6-0.5,2.8-1.5,3.7
		c-1,0.9-2.4,1.3-4.3,1.3H164.2z M170.1,173.6c0.6-0.6,0.9-1.4,0.9-2.4c0-1.1-0.3-1.9-0.9-2.4c-0.6-0.6-1.5-0.8-2.9-0.8h-3v6.5h3
		C168.5,174.5,169.5,174.2,170.1,173.6z"/>
	<path class="st0" d="M194.3,167.5c1.3,1,2.3,2.4,2.8,4.2h-2.3c-0.4-1.1-1.1-2-2.1-2.7c-1-0.7-2.1-1-3.5-1c-1.1,0-2.1,0.3-3,0.8
		s-1.6,1.3-2.1,2.3c-0.5,1-0.8,2.2-0.8,3.5c0,1.3,0.3,2.5,0.8,3.5c0.5,1,1.2,1.8,2.1,2.3c0.9,0.5,1.9,0.8,3,0.8c1.4,0,2.6-0.3,3.5-1
		c1-0.7,1.7-1.6,2.1-2.7h2.3c-0.5,1.8-1.4,3.2-2.8,4.2s-3.1,1.5-5.1,1.5c-1.6,0-3-0.4-4.2-1.1c-1.2-0.7-2.2-1.8-2.9-3.1
		c-0.7-1.3-1-2.8-1-4.5c0-1.7,0.3-3.2,1-4.5c0.7-1.3,1.6-2.3,2.9-3.1c1.2-0.7,2.6-1.1,4.2-1.1C191.3,166,193,166.5,194.3,167.5z"/>
	<path class="st0" d="M209.5,170.6c1,0.5,1.8,1.3,2.4,2.4c0.6,1,0.9,2.2,0.9,3.6s-0.3,2.6-0.9,3.6c-0.6,1-1.4,1.8-2.4,2.3
		c-1,0.5-2.1,0.8-3.4,0.8c-1.3,0-2.4-0.3-3.4-0.8c-1-0.5-1.8-1.3-2.4-2.3c-0.6-1-0.9-2.2-0.9-3.6s0.3-2.6,0.9-3.6
		c0.6-1,1.4-1.8,2.4-2.4c1-0.5,2.1-0.8,3.4-0.8C207.3,169.8,208.5,170,209.5,170.6z M203.9,172.2c-0.7,0.4-1.2,0.9-1.6,1.6
		s-0.6,1.6-0.6,2.7c0,1.1,0.2,2,0.6,2.7s0.9,1.3,1.6,1.6c0.7,0.4,1.4,0.5,2.2,0.5c0.8,0,1.5-0.2,2.2-0.5c0.7-0.4,1.2-0.9,1.6-1.6
		c0.4-0.7,0.6-1.6,0.6-2.7c0-1.1-0.2-2-0.6-2.7c-0.4-0.7-0.9-1.3-1.6-1.6c-0.7-0.4-1.4-0.5-2.2-0.5
		C205.3,171.7,204.6,171.9,203.9,172.2z"/>
	<path class="st0" d="M235.6,171.2c0.9,1,1.4,2.4,1.4,4.3v7.7h-2.2v-7.5c0-1.3-0.3-2.3-1-3c-0.6-0.7-1.5-1-2.6-1
		c-1.2,0-2.1,0.4-2.8,1.1c-0.7,0.8-1,1.9-1,3.4v7h-2.2v-7.5c0-1.3-0.3-2.3-1-3c-0.6-0.7-1.5-1-2.6-1c-1.2,0-2.1,0.4-2.8,1.1
		c-0.7,0.8-1,1.9-1,3.4v7h-2.2v-13.2h2.2v3c0.3-1,0.9-1.8,1.7-2.4s1.8-0.8,2.9-0.8c1.1,0,2.1,0.3,2.9,0.9c0.8,0.6,1.4,1.4,1.8,2.5
		c0.4-1.1,1-1.9,1.9-2.5c0.9-0.6,1.8-0.9,2.9-0.9C233.4,169.7,234.6,170.2,235.6,171.2z"/>
	<path class="st0" d="M250.8,170.6c0.9,0.5,1.6,1.3,2.2,2.4c0.5,1,0.8,2.2,0.8,3.6s-0.3,2.6-0.8,3.6c-0.5,1-1.2,1.8-2.2,2.3
		c-0.9,0.5-2,0.8-3.1,0.8c-1.3,0-2.4-0.3-3.3-1c-0.9-0.7-1.5-1.5-1.8-2.6v9.6h-2.2v-19.5h2.2v3.4c0.3-1.1,1-1.9,1.8-2.6
		c0.9-0.7,2-1,3.3-1C248.8,169.8,249.9,170,250.8,170.6z M244.7,172.3c-0.7,0.4-1.2,1-1.6,1.7c-0.4,0.7-0.6,1.6-0.6,2.6
		s0.2,1.8,0.6,2.5c0.4,0.7,0.9,1.3,1.6,1.7c0.7,0.4,1.5,0.6,2.3,0.6c1.4,0,2.5-0.4,3.3-1.3c0.8-0.9,1.2-2,1.2-3.6
		c0-1.5-0.4-2.7-1.2-3.6c-0.8-0.9-1.9-1.3-3.3-1.3C246.2,171.7,245.4,171.9,244.7,172.3z"/>
	<path class="st0" d="M258.8,165.3v17.8h-2.2v-17.8H258.8z"/>
	<path class="st0" d="M262.3,165.1c0.3-0.2,0.6-0.4,1.1-0.4s0.8,0.1,1.1,0.4c0.3,0.2,0.4,0.6,0.4,1c0,0.4-0.1,0.7-0.4,1
		c-0.3,0.2-0.6,0.4-1.1,0.4s-0.8-0.1-1.1-0.4s-0.4-0.6-0.4-1C261.9,165.6,262.1,165.3,262.3,165.1z M264.5,169.9v13.2h-2.2v-13.2
		H264.5z"/>
	<path class="st0" d="M276.7,170.7c0.9,0.6,1.5,1.5,1.9,2.6v-3.4h2.2v13.2h-2.2v-3.4c-0.4,1.1-1,1.9-1.9,2.6c-0.9,0.6-2,1-3.3,1
		c-1.2,0-2.2-0.3-3.1-0.8s-1.6-1.3-2.2-2.3c-0.5-1-0.8-2.2-0.8-3.6s0.3-2.6,0.8-3.6c0.5-1,1.2-1.8,2.2-2.4s2-0.8,3.1-0.8
		C274.7,169.8,275.8,170.1,276.7,170.7z M270.8,173c-0.8,0.9-1.2,2-1.2,3.6c0,1.5,0.4,2.7,1.2,3.6c0.8,0.9,1.9,1.3,3.2,1.3
		c0.9,0,1.6-0.2,2.3-0.6c0.7-0.4,1.2-1,1.6-1.7s0.6-1.6,0.6-2.5s-0.2-1.8-0.6-2.6c-0.4-0.7-0.9-1.3-1.6-1.7
		c-0.7-0.4-1.5-0.6-2.3-0.6C272.7,171.7,271.6,172.1,270.8,173z"/>
	<path class="st0" d="M295,171.2c0.9,1,1.4,2.4,1.4,4.3v7.7h-2.2v-7.5c0-1.3-0.3-2.3-1-3s-1.6-1.1-2.7-1.1c-1.2,0-2.2,0.4-2.9,1.2
		c-0.7,0.8-1.1,1.9-1.1,3.4v7h-2.2v-13.2h2.2v3.1c0.3-1.1,0.9-1.9,1.8-2.5c0.9-0.6,1.9-0.9,3-0.9C292.8,169.7,294,170.2,295,171.2z"
		/>
	<path class="st0" d="M306.1,181.2v1.9h-1.6c-1.3,0-2.4-0.3-3-1c-0.7-0.6-1-1.7-1-3.2v-7.1h-2v-1.9h2v-3.3h2.2v3.3h3.4v1.9h-3.4v7.2
		c0,0.9,0.2,1.4,0.5,1.7c0.3,0.3,0.9,0.5,1.6,0.5H306.1z"/>
</g>
<rect x="320.9" y="97.1" class="st1" width="6.5" height="93.3"/>
<path d="M476.9,96.3c0.4,0,0.9,0.1,1.3,0.1c0.3,0,0.6,0.1,0.9,0.1c0.2,0,0.3,0.1,0.3,0.3c0,0.1,0,0.1,0,0.2c0,4.6,0,9.1,0,13.7
	c0,0.4,0,0.5-0.5,0.4c-1.6-0.2-3.2-0.2-4.9-0.2c-3.3,0-6.5,0.5-9.7,1.5c-4.6,1.4-8.7,3.7-12.2,6.9c-3.7,3.2-6.6,7.1-8.6,11.6
	c-0.9,2-1.6,4-2.1,6.1c-0.1,0.4-0.1,0.4,0.4,0.4c9.1,0,18.2,0,27.3,0c0.7,0,0.6,0,0.6,0.6c0,4.5,0,9,0,13.5c0,0.5,0,0.5-0.5,0.5
	c-9.1,0-18.2,0-27.3,0c-0.5,0-0.5,0-0.4,0.5c1.4,5.6,4,10.6,7.8,14.9c3.9,4.3,8.7,7.5,14.2,9.4c2.4,0.8,4.9,1.4,7.5,1.6
	c1.9,0.2,3.9,0.2,5.8,0.2c0.7,0,1.4-0.1,2.1-0.2c0.4,0,0.4,0,0.4,0.4c0,3.3,0,6.6,0,9.8c0,1.3,0,2.7,0,4c0,0.2-0.1,0.4-0.3,0.4
	c-1.8,0.2-3.7,0.2-5.5,0.2c-2.5,0-5-0.3-7.5-0.7c-3.7-0.7-7.4-1.7-10.8-3.3c-4.2-1.8-8.2-4.2-11.7-7.2c-4.6-3.8-8.4-8.4-11.3-13.6
	c-2.5-4.4-4.2-9.1-5.2-14c-0.4-2-0.7-4.1-0.9-6.1c-0.1-1.6-0.2-3.2-0.1-4.8c0.2-7,1.8-13.6,4.9-19.9c2.2-4.6,5.1-8.7,8.5-12.3
	c4.1-4.3,8.9-7.8,14.2-10.3c3.9-1.9,7.9-3.2,12.2-3.9c2-0.4,4.1-0.6,6.1-0.7c0.1,0,0.1,0,0.2,0C473.7,96.3,475.3,96.3,476.9,96.3z"
	/>
<path d="M394.5,96.3c0.4,0,0.8,0.1,1.2,0.1c0.3,0,0.7,0.1,1,0.1c0.2,0,0.3,0.1,0.3,0.3c0,0.1,0,0.2,0,0.3c0,4.5,0,9.1,0,13.6
	c0,0.5,0,0.5-0.5,0.5c-1.8-0.2-3.5-0.2-5.3-0.2c-3.5,0.1-6.9,0.7-10.3,1.9c-3.9,1.3-7.4,3.3-10.5,5.9c-3.9,3.3-7,7.2-9.1,11.9
	c-1.3,2.9-2.2,5.8-2.7,9c-0.4,2.2-0.5,4.4-0.4,6.6c0.3,5.7,1.8,11.1,4.8,16.1c1.5,2.4,3.2,4.7,5.2,6.6c3.6,3.5,7.7,6.2,12.4,7.9
	c2.3,0.8,4.7,1.4,7.1,1.7c2.2,0.3,4.4,0.3,6.7,0.3c0.7,0,1.5-0.1,2.2-0.2c0.3,0,0.4,0.1,0.4,0.3c0,2.5,0,5,0,7.5c0,2.1,0,4.2,0,6.3
	c0,0.4,0,0.4-0.5,0.5c-1.9,0.2-3.8,0.2-5.6,0.2c-3-0.1-6-0.4-8.9-1c-6.1-1.3-11.7-3.7-16.9-7.2c-6-4-10.9-9.2-14.6-15.4
	c-2.9-4.8-4.9-10-6-15.5c-0.4-1.9-0.7-3.9-0.8-5.9c0-0.4-0.1-0.7-0.1-1.1c0-1.6,0-3.2,0-4.8c0-0.1,0-0.1,0-0.2
	c0.1-1.9,0.3-3.7,0.6-5.6c0.8-4.7,2.2-9.1,4.4-13.4c2.9-5.9,6.8-10.9,11.8-15.2c5.6-4.8,12.1-8.2,19.2-10.1c2.9-0.8,5.9-1.3,8.9-1.5
	c0.4,0,0.7-0.1,1.1-0.1C391.3,96.3,392.9,96.3,394.5,96.3z"/>
</svg>
